<svg width="61" height="101" viewBox="0 0 61 101" fill="none" xmlns="http://www.w3.org/2000/svg">
<g id="Flower Right">
<path id="Vector 321" d="M24.8657 97.5273C23.8159 89.1286 20.6812 82.3956 24.5774 74.1702C27.0057 69.0439 25.0727 63.5862 27.1726 58.5988C31.9139 47.3383 24.2178 34.5956 20.9729 24.8608" stroke="#77DC67" stroke-width="6" stroke-linecap="round"/>
<path id="Vector 322" d="M30.0562 53.4083C30.7938 46.7698 40.9964 45.0228 46.2764 43.7483C53.083 42.1053 61.8577 43.0896 54.4226 50.5247C52.3977 52.5496 50.3538 52.1107 47.574 52.1107C45.9588 52.1107 42.5935 54.5172 41.086 55.3547C36.7004 57.7912 32.4386 61.194 27.461 61.194" stroke="#77DC67" stroke-width="6" stroke-linecap="round"/>
<path id="Vector 323" d="M18.5447 23.0411C17.8469 23.2156 17.917 25.3641 17.139 25.8087C16.2189 26.3345 15.8116 27.3309 14.7887 27.7856C13.7036 28.2678 9.92216 30.7466 8.66041 29.1694C6.75602 26.7889 8.05774 25.2889 10.2419 24.1394C11.3399 23.5615 11.7795 23.0411 13.0974 23.0411C14.05 23.0411 15.3921 22.7706 16.1725 22.2504" stroke="#A867DC" stroke-width="6" stroke-linecap="round"/>
<path id="Vector 324" d="M16.5679 21.0642C13.339 21.0642 9.44865 17.7199 6.90321 16.1001C5.72126 15.3479 4.42414 14.2361 3.43272 13.2446C2.34764 12.1596 3.50252 11.3444 4.70669 11.6631C7.21804 12.3279 8.20884 14.6024 10.0662 16.1221C11.2191 17.0653 12.3289 17.7809 13.0974 19.0874C13.4883 19.752 14.2869 21.1098 14.9864 21.4596" stroke="#A867DC" stroke-width="6" stroke-linecap="round"/>
<path id="Vector 325" d="M16.5678 20.2735C16.5678 14.9171 15.7771 9.83671 15.7771 4.45855C15.7771 3.04686 16.5696 2.18134 17.0511 4.15104C17.6482 6.59393 18.5447 8.85453 18.5447 11.3776C18.5447 14.2472 16.5678 16.2866 16.5678 19.0873" stroke="#A867DC" stroke-width="6" stroke-linecap="round"/>
<path id="Vector 326" d="M18.9401 16.3198C19.1401 14.7199 20.8703 12.7609 22.2788 11.9926C24.3344 10.8714 26.4288 10.9707 28.4291 10.0817C30.4856 9.16765 33.1712 11.1994 29.9886 11.5973C26.6227 12.018 23.867 15.529 20.5216 15.529" stroke="#A867DC" stroke-width="6" stroke-linecap="round"/>
<path id="Vector 327" d="M19.7308 18.2966C22.1634 18.2966 24.7052 18.692 27.2429 18.692C28.7203 18.692 30.921 18.2376 30.8013 20.2735C30.6321 23.1486 21.5789 20.4112 20.917 19.0874" stroke="#A867DC" stroke-width="6" stroke-linecap="round"/>
<path id="Vector 328" d="M20.9169 23.4365C21.7351 24.3569 21.3216 26.2647 21.7955 27.3902C22.346 28.6974 22.4984 31.3053 22.4984 32.7277C22.4984 33.783 23.6004 33.9732 23.6845 32.8375C23.7593 31.8284 23.9198 30.5882 24.1019 29.5867C24.4019 27.9367 24.4753 26.3638 24.4753 24.6226" stroke="#A867DC" stroke-width="6" stroke-linecap="round"/>
<path id="Vector 329" d="M18.9401 17.9012C18.3075 17.9803 18.0071 19.479 18.1713 20.0538C18.4154 20.9081 19.7309 19.1786 19.7309 18.692C19.7309 17.6153 17.9928 17.5184 17.776 18.4943C17.4525 19.95 17.9278 21.5074 18.9401 19.4827" stroke="#E7EA49" stroke-width="6" stroke-linecap="round"/>
<path id="Vector 330" d="M31.3401 54.424C32.6938 54.424 34.1397 54.5728 35.4824 54.4049C37.0946 54.2034 39.7848 52.4366 41.1327 51.5034C44.2751 49.3279 47.6245 47.552 51.5362 47.552C52.1979 47.552 52.8597 47.552 53.5214 47.552C55.0993 47.552 52.3005 47.552 51.937 47.552C47.5361 47.552 42.7606 47.9959 38.5748 49.4609C37.0196 50.0052 36.1243 50.9248 34.7761 51.5988C33.2998 52.337 33.799 53.3127 33.0581 54.424" stroke="#90EA49" stroke-width="6" stroke-linecap="round"/>
</g>
</svg>
